<svg xmlns="http://www.w3.org/2000/svg" xmlns:xlink="http://www.w3.org/1999/xlink" width="171" zoomAndPan="magnify" viewBox="0 0 128.25 33.749998" height="45" preserveAspectRatio="xMidYMid meet" version="1.0"><defs><g/><clipPath id="2d86e6a3cf"><path d="M 53.082031 5.832031 L 59.675781 5.832031 L 59.675781 12.429688 L 53.082031 12.429688 Z M 53.082031 5.832031 " clip-rule="nonzero"/></clipPath><clipPath id="9322ba5ae9"><path d="M 56.378906 5.832031 C 54.558594 5.832031 53.082031 7.308594 53.082031 9.132812 C 53.082031 10.953125 54.558594 12.429688 56.378906 12.429688 C 58.199219 12.429688 59.675781 10.953125 59.675781 9.132812 C 59.675781 7.308594 58.199219 5.832031 56.378906 5.832031 Z M 56.378906 5.832031 " clip-rule="nonzero"/></clipPath></defs><g clip-path="url(#2d86e6a3cf)"><g clip-path="url(#9322ba5ae9)"><path fill="#ffffff" d="M 53.082031 5.832031 L 59.675781 5.832031 L 59.675781 12.429688 L 53.082031 12.429688 Z M 53.082031 5.832031 " fill-opacity="1" fill-rule="nonzero"/></g></g><g fill="#c6f6d5" fill-opacity="1"><g transform="translate(25.095725, 19.266601)"><g><path d="M 14.296875 0.59375 L 14.296875 -6.9375 C 13.140625 -6.988281 12.023438 -7.050781 10.953125 -7.125 C 9.878906 -7.195312 8.894531 -7.265625 8 -7.328125 L 8 -5.15625 C 8 -4.28125 7.914062 -3.519531 7.75 -2.875 C 7.59375 -2.226562 7.332031 -1.691406 6.96875 -1.265625 C 6.613281 -0.835938 6.160156 -0.519531 5.609375 -0.3125 C 5.054688 -0.101562 4.394531 0 3.625 0 C 3.082031 0 2.570312 -0.0820312 2.09375 -0.25 C 1.625 -0.414062 1.210938 -0.648438 0.859375 -0.953125 C 0.515625 -1.253906 0.242188 -1.617188 0.046875 -2.046875 C -0.148438 -2.472656 -0.25 -2.953125 -0.25 -3.484375 C -0.25 -4.054688 -0.117188 -4.613281 0.140625 -5.15625 C 0.398438 -5.695312 0.78125 -6.171875 1.28125 -6.578125 C 1.78125 -6.992188 2.398438 -7.328125 3.140625 -7.578125 C 3.890625 -7.835938 4.75 -7.96875 5.71875 -7.96875 L 6.515625 -7.96875 L 6.515625 -9.59375 C 6.515625 -10.113281 6.523438 -10.613281 6.546875 -11.09375 C 6.566406 -11.570312 6.625 -12.035156 6.71875 -12.484375 C 6.820312 -12.929688 6.972656 -13.363281 7.171875 -13.78125 C 7.378906 -14.207031 7.65625 -14.625 8 -15.03125 C 7.644531 -14.769531 7.257812 -14.59375 6.84375 -14.5 C 6.425781 -14.414062 6 -14.375 5.5625 -14.375 C 5.257812 -14.375 4.957031 -14.382812 4.65625 -14.40625 C 4.363281 -14.4375 4.070312 -14.46875 3.78125 -14.5 C 3.488281 -14.53125 3.203125 -14.5625 2.921875 -14.59375 C 2.648438 -14.625 2.382812 -14.640625 2.125 -14.640625 C 1.851562 -14.640625 1.617188 -14.601562 1.421875 -14.53125 C 1.222656 -14.46875 1.054688 -14.375 0.921875 -14.25 C 0.796875 -14.132812 0.695312 -14 0.625 -13.84375 C 0.5625 -13.6875 0.53125 -13.519531 0.53125 -13.34375 C 0.53125 -13.164062 0.570312 -12.992188 0.65625 -12.828125 C 0.738281 -12.671875 0.863281 -12.523438 1.03125 -12.390625 C 1.195312 -12.253906 1.394531 -12.144531 1.625 -12.0625 C 1.863281 -11.988281 2.132812 -11.953125 2.4375 -11.953125 C 2.707031 -11.953125 2.953125 -11.976562 3.171875 -12.03125 C 3.390625 -12.082031 3.578125 -12.140625 3.734375 -12.203125 C 3.910156 -12.273438 4.070312 -12.363281 4.21875 -12.46875 L 4.421875 -12.046875 C 4.242188 -11.929688 4.050781 -11.832031 3.84375 -11.75 C 3.65625 -11.675781 3.441406 -11.609375 3.203125 -11.546875 C 2.960938 -11.484375 2.707031 -11.453125 2.4375 -11.453125 C 2.0625 -11.453125 1.71875 -11.503906 1.40625 -11.609375 C 1.101562 -11.722656 0.84375 -11.867188 0.625 -12.046875 C 0.40625 -12.234375 0.234375 -12.457031 0.109375 -12.71875 C -0.00390625 -12.976562 -0.0625 -13.253906 -0.0625 -13.546875 C -0.0625 -13.898438 0 -14.210938 0.125 -14.484375 C 0.257812 -14.753906 0.4375 -14.984375 0.65625 -15.171875 C 0.882812 -15.359375 1.148438 -15.5 1.453125 -15.59375 C 1.753906 -15.6875 2.082031 -15.734375 2.4375 -15.734375 C 2.789062 -15.734375 3.140625 -15.710938 3.484375 -15.671875 C 3.835938 -15.628906 4.1875 -15.578125 4.53125 -15.515625 C 4.882812 -15.460938 5.226562 -15.410156 5.5625 -15.359375 C 5.90625 -15.316406 6.242188 -15.296875 6.578125 -15.296875 C 6.910156 -15.296875 7.234375 -15.328125 7.546875 -15.390625 C 7.867188 -15.453125 8.191406 -15.566406 8.515625 -15.734375 L 8.90625 -15.4375 C 8.757812 -15.238281 8.628906 -15.019531 8.515625 -14.78125 C 8.410156 -14.539062 8.316406 -14.25 8.234375 -13.90625 C 8.160156 -13.5625 8.101562 -13.148438 8.0625 -12.671875 C 8.019531 -12.203125 8 -11.628906 8 -10.953125 L 8 -7.96875 L 14.296875 -7.96875 L 14.296875 -10.765625 C 14.296875 -11.390625 14.3125 -11.945312 14.34375 -12.4375 C 14.375 -12.925781 14.421875 -13.363281 14.484375 -13.75 C 14.546875 -14.132812 14.617188 -14.476562 14.703125 -14.78125 C 14.796875 -15.082031 14.898438 -15.351562 15.015625 -15.59375 C 15.140625 -15.84375 15.269531 -16.070312 15.40625 -16.28125 C 15.550781 -16.5 15.707031 -16.71875 15.875 -16.9375 L 16.28125 -16.640625 C 16.175781 -16.429688 16.085938 -16.207031 16.015625 -15.96875 C 15.941406 -15.738281 15.878906 -15.4375 15.828125 -15.0625 C 15.785156 -14.6875 15.75 -14.21875 15.71875 -13.65625 C 15.695312 -13.101562 15.6875 -12.40625 15.6875 -11.5625 L 15.6875 -7.96875 L 17.375 -7.96875 L 17.078125 -6.875 C 16.847656 -6.875 16.613281 -6.875 16.375 -6.875 C 16.132812 -6.875 15.90625 -6.878906 15.6875 -6.890625 L 15.6875 0.40625 Z M 3.828125 -0.5 C 4.273438 -0.5 4.664062 -0.554688 5 -0.671875 C 5.332031 -0.796875 5.609375 -1 5.828125 -1.28125 C 6.054688 -1.570312 6.226562 -1.953125 6.34375 -2.421875 C 6.457031 -2.890625 6.515625 -3.46875 6.515625 -4.15625 L 6.515625 -7.4375 C 6.316406 -7.445312 6.117188 -7.453125 5.921875 -7.453125 C 5.734375 -7.460938 5.566406 -7.46875 5.421875 -7.46875 C 4.859375 -7.46875 4.359375 -7.40625 3.921875 -7.28125 C 3.484375 -7.164062 3.101562 -7.003906 2.78125 -6.796875 C 2.457031 -6.597656 2.179688 -6.363281 1.953125 -6.09375 C 1.734375 -5.832031 1.554688 -5.554688 1.421875 -5.265625 C 1.285156 -4.972656 1.1875 -4.671875 1.125 -4.359375 C 1.070312 -4.054688 1.046875 -3.765625 1.046875 -3.484375 C 1.046875 -2.941406 1.128906 -2.476562 1.296875 -2.09375 C 1.460938 -1.71875 1.675781 -1.410156 1.9375 -1.171875 C 2.207031 -0.929688 2.507812 -0.757812 2.84375 -0.65625 C 3.175781 -0.550781 3.503906 -0.5 3.828125 -0.5 Z M 3.828125 -0.5 "/></g></g></g><g fill="#c6f6d5" fill-opacity="1"><g transform="translate(43.155884, 19.266601)"><g><path d="M 8.15625 -4.078125 L 8.046875 -3.875 C 7.828125 -3.4375 7.53125 -3.085938 7.15625 -2.828125 C 6.789062 -2.566406 6.394531 -2.394531 5.96875 -2.3125 C 5.851562 -1.976562 5.703125 -1.671875 5.515625 -1.390625 C 5.335938 -1.109375 5.128906 -0.863281 4.890625 -0.65625 C 4.648438 -0.445312 4.378906 -0.285156 4.078125 -0.171875 C 3.785156 -0.0546875 3.46875 0 3.125 0 C 2.632812 0 2.1875 -0.101562 1.78125 -0.3125 C 1.382812 -0.519531 1.046875 -0.804688 0.765625 -1.171875 C 0.484375 -1.535156 0.269531 -1.957031 0.125 -2.4375 C -0.0195312 -2.914062 -0.09375 -3.429688 -0.09375 -3.984375 C -0.09375 -4.460938 -0.0390625 -4.898438 0.0625 -5.296875 C 0.175781 -5.691406 0.316406 -6.039062 0.484375 -6.34375 C 0.648438 -6.65625 0.835938 -6.925781 1.046875 -7.15625 C 1.253906 -7.382812 1.457031 -7.570312 1.65625 -7.71875 C 1.863281 -7.875 2.050781 -7.988281 2.21875 -8.0625 C 2.382812 -8.132812 2.507812 -8.171875 2.59375 -8.171875 L 2.71875 -7.828125 C 2.445312 -7.628906 2.207031 -7.359375 2 -7.015625 C 1.820312 -6.710938 1.660156 -6.316406 1.515625 -5.828125 C 1.367188 -5.335938 1.296875 -4.722656 1.296875 -3.984375 C 1.296875 -3.535156 1.335938 -3.097656 1.421875 -2.671875 C 1.503906 -2.253906 1.625 -1.882812 1.78125 -1.5625 C 1.945312 -1.238281 2.148438 -0.976562 2.390625 -0.78125 C 2.628906 -0.59375 2.894531 -0.5 3.1875 -0.5 C 3.59375 -0.5 3.929688 -0.660156 4.203125 -0.984375 C 4.472656 -1.316406 4.675781 -1.765625 4.8125 -2.328125 C 4.46875 -2.398438 4.144531 -2.535156 3.84375 -2.734375 C 3.539062 -2.929688 3.269531 -3.171875 3.03125 -3.453125 C 2.800781 -3.742188 2.613281 -4.078125 2.46875 -4.453125 C 2.332031 -4.828125 2.265625 -5.238281 2.265625 -5.6875 C 2.265625 -6.039062 2.3125 -6.351562 2.40625 -6.625 C 2.5 -6.90625 2.625 -7.140625 2.78125 -7.328125 C 2.9375 -7.515625 3.113281 -7.65625 3.3125 -7.75 C 3.519531 -7.84375 3.738281 -7.890625 3.96875 -7.890625 C 4.238281 -7.890625 4.507812 -7.8125 4.78125 -7.65625 C 5.0625 -7.507812 5.316406 -7.285156 5.546875 -6.984375 C 5.773438 -6.679688 5.957031 -6.300781 6.09375 -5.84375 C 6.238281 -5.394531 6.3125 -4.867188 6.3125 -4.265625 C 6.3125 -4.035156 6.296875 -3.8125 6.265625 -3.59375 C 6.242188 -3.375 6.207031 -3.160156 6.15625 -2.953125 C 6.46875 -3.035156 6.75 -3.175781 7 -3.375 C 7.257812 -3.582031 7.472656 -3.851562 7.640625 -4.1875 L 7.75 -4.390625 Z M 2.90625 -5.765625 C 2.90625 -5.378906 2.957031 -5.023438 3.0625 -4.703125 C 3.175781 -4.378906 3.320312 -4.09375 3.5 -3.84375 C 3.6875 -3.601562 3.898438 -3.398438 4.140625 -3.234375 C 4.378906 -3.078125 4.632812 -2.96875 4.90625 -2.90625 C 4.9375 -3.09375 4.957031 -3.285156 4.96875 -3.484375 C 4.976562 -3.679688 4.984375 -3.878906 4.984375 -4.078125 C 4.984375 -4.546875 4.945312 -4.960938 4.875 -5.328125 C 4.800781 -5.703125 4.707031 -6.019531 4.59375 -6.28125 C 4.476562 -6.550781 4.34375 -6.753906 4.1875 -6.890625 C 4.03125 -7.035156 3.867188 -7.109375 3.703125 -7.109375 C 3.484375 -7.109375 3.296875 -6.988281 3.140625 -6.75 C 2.984375 -6.519531 2.90625 -6.191406 2.90625 -5.765625 Z M 2.90625 -5.765625 "/></g></g></g><g fill="#c6f6d5" fill-opacity="1"><g transform="translate(50.90707, 19.266601)"><g><path d="M 2.09375 -1.234375 C 2.207031 -1.234375 2.335938 -1.304688 2.484375 -1.453125 C 2.640625 -1.609375 2.804688 -1.816406 2.984375 -2.078125 C 3.160156 -2.347656 3.34375 -2.660156 3.53125 -3.015625 C 3.726562 -3.378906 3.929688 -3.769531 4.140625 -4.1875 L 4.234375 -4.390625 L 4.640625 -4.078125 L 4.546875 -3.875 C 4.203125 -3.1875 3.894531 -2.597656 3.625 -2.109375 C 3.351562 -1.617188 3.097656 -1.21875 2.859375 -0.90625 C 2.628906 -0.59375 2.410156 -0.363281 2.203125 -0.21875 C 1.992188 -0.0703125 1.78125 0 1.5625 0 C 1.269531 0 1.015625 -0.09375 0.796875 -0.28125 C 0.585938 -0.476562 0.410156 -0.800781 0.265625 -1.25 C 0.128906 -1.695312 0.03125 -2.289062 -0.03125 -3.03125 C -0.101562 -3.769531 -0.140625 -4.6875 -0.140625 -5.78125 C -0.140625 -7.320312 -0.078125 -8.644531 0.046875 -9.75 C 0.179688 -10.851562 0.359375 -11.757812 0.578125 -12.46875 C 0.804688 -13.1875 1.066406 -13.710938 1.359375 -14.046875 C 1.660156 -14.378906 1.972656 -14.546875 2.296875 -14.546875 C 2.492188 -14.546875 2.65625 -14.460938 2.78125 -14.296875 C 2.914062 -14.140625 2.984375 -13.851562 2.984375 -13.4375 C 2.984375 -13.113281 2.957031 -12.742188 2.90625 -12.328125 C 2.851562 -11.921875 2.785156 -11.476562 2.703125 -11 C 2.617188 -10.53125 2.519531 -10.039062 2.40625 -9.53125 C 2.289062 -9.019531 2.164062 -8.507812 2.03125 -8 C 1.90625 -7.5 1.773438 -7.007812 1.640625 -6.53125 C 1.503906 -6.050781 1.367188 -5.597656 1.234375 -5.171875 C 1.273438 -4.378906 1.316406 -3.726562 1.359375 -3.21875 C 1.410156 -2.707031 1.46875 -2.304688 1.53125 -2.015625 C 1.601562 -1.722656 1.6875 -1.519531 1.78125 -1.40625 C 1.875 -1.289062 1.976562 -1.234375 2.09375 -1.234375 Z M 2.359375 -13.203125 C 2.359375 -13.347656 2.335938 -13.457031 2.296875 -13.53125 C 2.265625 -13.601562 2.21875 -13.640625 2.15625 -13.640625 C 2.082031 -13.640625 2.007812 -13.539062 1.9375 -13.34375 C 1.863281 -13.144531 1.789062 -12.875 1.71875 -12.53125 C 1.65625 -12.1875 1.59375 -11.785156 1.53125 -11.328125 C 1.476562 -10.878906 1.429688 -10.398438 1.390625 -9.890625 C 1.347656 -9.378906 1.3125 -8.859375 1.28125 -8.328125 C 1.257812 -7.796875 1.242188 -7.285156 1.234375 -6.796875 C 1.390625 -7.359375 1.535156 -7.941406 1.671875 -8.546875 C 1.804688 -9.148438 1.921875 -9.734375 2.015625 -10.296875 C 2.117188 -10.859375 2.203125 -11.390625 2.265625 -11.890625 C 2.328125 -12.390625 2.359375 -12.828125 2.359375 -13.203125 Z M 2.359375 -13.203125 "/></g></g></g><g fill="#c6f6d5" fill-opacity="1"><g transform="translate(55.147364, 19.266601)"><g><path d="M 8.15625 -4.078125 L 8.046875 -3.875 C 7.828125 -3.4375 7.53125 -3.085938 7.15625 -2.828125 C 6.789062 -2.566406 6.394531 -2.394531 5.96875 -2.3125 C 5.851562 -1.976562 5.703125 -1.671875 5.515625 -1.390625 C 5.335938 -1.109375 5.128906 -0.863281 4.890625 -0.65625 C 4.648438 -0.445312 4.378906 -0.285156 4.078125 -0.171875 C 3.785156 -0.0546875 3.46875 0 3.125 0 C 2.632812 0 2.1875 -0.101562 1.78125 -0.3125 C 1.382812 -0.519531 1.046875 -0.804688 0.765625 -1.171875 C 0.484375 -1.535156 0.269531 -1.957031 0.125 -2.4375 C -0.0195312 -2.914062 -0.09375 -3.429688 -0.09375 -3.984375 C -0.09375 -4.460938 -0.0390625 -4.898438 0.0625 -5.296875 C 0.175781 -5.691406 0.316406 -6.039062 0.484375 -6.34375 C 0.648438 -6.65625 0.835938 -6.925781 1.046875 -7.15625 C 1.253906 -7.382812 1.457031 -7.570312 1.65625 -7.71875 C 1.863281 -7.875 2.050781 -7.988281 2.21875 -8.0625 C 2.382812 -8.132812 2.507812 -8.171875 2.59375 -8.171875 L 2.71875 -7.828125 C 2.445312 -7.628906 2.207031 -7.359375 2 -7.015625 C 1.820312 -6.710938 1.660156 -6.316406 1.515625 -5.828125 C 1.367188 -5.335938 1.296875 -4.722656 1.296875 -3.984375 C 1.296875 -3.535156 1.335938 -3.097656 1.421875 -2.671875 C 1.503906 -2.253906 1.625 -1.882812 1.78125 -1.5625 C 1.945312 -1.238281 2.148438 -0.976562 2.390625 -0.78125 C 2.628906 -0.59375 2.894531 -0.5 3.1875 -0.5 C 3.59375 -0.5 3.929688 -0.660156 4.203125 -0.984375 C 4.472656 -1.316406 4.675781 -1.765625 4.8125 -2.328125 C 4.46875 -2.398438 4.144531 -2.535156 3.84375 -2.734375 C 3.539062 -2.929688 3.269531 -3.171875 3.03125 -3.453125 C 2.800781 -3.742188 2.613281 -4.078125 2.46875 -4.453125 C 2.332031 -4.828125 2.265625 -5.238281 2.265625 -5.6875 C 2.265625 -6.039062 2.3125 -6.351562 2.40625 -6.625 C 2.5 -6.90625 2.625 -7.140625 2.78125 -7.328125 C 2.9375 -7.515625 3.113281 -7.65625 3.3125 -7.75 C 3.519531 -7.84375 3.738281 -7.890625 3.96875 -7.890625 C 4.238281 -7.890625 4.507812 -7.8125 4.78125 -7.65625 C 5.0625 -7.507812 5.316406 -7.285156 5.546875 -6.984375 C 5.773438 -6.679688 5.957031 -6.300781 6.09375 -5.84375 C 6.238281 -5.394531 6.3125 -4.867188 6.3125 -4.265625 C 6.3125 -4.035156 6.296875 -3.8125 6.265625 -3.59375 C 6.242188 -3.375 6.207031 -3.160156 6.15625 -2.953125 C 6.46875 -3.035156 6.75 -3.175781 7 -3.375 C 7.257812 -3.582031 7.472656 -3.851562 7.640625 -4.1875 L 7.75 -4.390625 Z M 2.90625 -5.765625 C 2.90625 -5.378906 2.957031 -5.023438 3.0625 -4.703125 C 3.175781 -4.378906 3.320312 -4.09375 3.5 -3.84375 C 3.6875 -3.601562 3.898438 -3.398438 4.140625 -3.234375 C 4.378906 -3.078125 4.632812 -2.96875 4.90625 -2.90625 C 4.9375 -3.09375 4.957031 -3.285156 4.96875 -3.484375 C 4.976562 -3.679688 4.984375 -3.878906 4.984375 -4.078125 C 4.984375 -4.546875 4.945312 -4.960938 4.875 -5.328125 C 4.800781 -5.703125 4.707031 -6.019531 4.59375 -6.28125 C 4.476562 -6.550781 4.34375 -6.753906 4.1875 -6.890625 C 4.03125 -7.035156 3.867188 -7.109375 3.703125 -7.109375 C 3.484375 -7.109375 3.296875 -6.988281 3.140625 -6.75 C 2.984375 -6.519531 2.90625 -6.191406 2.90625 -5.765625 Z M 2.90625 -5.765625 "/></g></g></g><g fill="#c6f6d5" fill-opacity="1"><g transform="translate(62.89855, 19.266601)"><g><path d="M 9.0625 -16.328125 C 9.726562 -16.328125 10.316406 -16.238281 10.828125 -16.0625 C 11.335938 -15.894531 11.765625 -15.65625 12.109375 -15.34375 C 12.453125 -15.039062 12.707031 -14.679688 12.875 -14.265625 C 13.050781 -13.847656 13.140625 -13.410156 13.140625 -12.953125 C 13.140625 -12.429688 13.050781 -11.9375 12.875 -11.46875 C 12.707031 -11 12.472656 -10.550781 12.171875 -10.125 C 11.867188 -9.707031 11.515625 -9.3125 11.109375 -8.9375 C 10.703125 -8.570312 10.265625 -8.238281 9.796875 -7.9375 C 9.328125 -7.632812 8.84375 -7.363281 8.34375 -7.125 C 7.84375 -6.882812 7.34375 -6.679688 6.84375 -6.515625 C 7.195312 -6.203125 7.515625 -5.835938 7.796875 -5.421875 C 8.085938 -5.015625 8.359375 -4.578125 8.609375 -4.109375 C 8.867188 -3.648438 9.125 -3.175781 9.375 -2.6875 C 9.632812 -2.207031 9.90625 -1.738281 10.1875 -1.28125 C 10.46875 -0.820312 10.769531 -0.390625 11.09375 0.015625 C 11.414062 0.421875 11.785156 0.78125 12.203125 1.09375 C 12.628906 1.40625 13.097656 1.648438 13.609375 1.828125 C 14.128906 2.003906 14.726562 2.09375 15.40625 2.09375 L 15.4375 2.484375 C 15.351562 2.503906 15.253906 2.519531 15.140625 2.53125 C 15.054688 2.550781 14.941406 2.566406 14.796875 2.578125 C 14.660156 2.585938 14.507812 2.59375 14.34375 2.59375 C 13.5 2.59375 12.757812 2.492188 12.125 2.296875 C 11.5 2.109375 10.953125 1.847656 10.484375 1.515625 C 10.023438 1.191406 9.632812 0.8125 9.3125 0.375 C 8.988281 -0.0507812 8.703125 -0.503906 8.453125 -0.984375 C 8.210938 -1.472656 8 -1.96875 7.8125 -2.46875 C 7.632812 -2.96875 7.457031 -3.453125 7.28125 -3.921875 C 7.101562 -4.390625 6.914062 -4.828125 6.71875 -5.234375 C 6.519531 -5.640625 6.285156 -5.988281 6.015625 -6.28125 C 5.878906 -6.238281 5.75 -6.207031 5.625 -6.1875 C 5.5 -6.175781 5.375 -6.160156 5.25 -6.140625 C 5.25 -5.671875 5.242188 -5.265625 5.234375 -4.921875 C 5.222656 -4.585938 5.207031 -4.289062 5.1875 -4.03125 C 5.175781 -3.769531 5.160156 -3.539062 5.140625 -3.34375 C 5.117188 -3.15625 5.097656 -2.972656 5.078125 -2.796875 C 5.003906 -2.285156 4.898438 -1.851562 4.765625 -1.5 C 4.628906 -1.144531 4.460938 -0.851562 4.265625 -0.625 C 4.078125 -0.40625 3.859375 -0.242188 3.609375 -0.140625 C 3.359375 -0.046875 3.082031 0 2.78125 0 C 2.363281 0 1.96875 -0.117188 1.59375 -0.359375 C 1.226562 -0.609375 0.910156 -0.976562 0.640625 -1.46875 C 0.378906 -1.957031 0.171875 -2.5625 0.015625 -3.28125 C -0.128906 -4 -0.203125 -4.832031 -0.203125 -5.78125 C -0.203125 -6.769531 -0.0976562 -7.71875 0.109375 -8.625 C 0.328125 -9.539062 0.628906 -10.390625 1.015625 -11.171875 C 1.410156 -11.953125 1.882812 -12.660156 2.4375 -13.296875 C 3 -13.929688 3.625 -14.472656 4.3125 -14.921875 C 5 -15.378906 5.742188 -15.726562 6.546875 -15.96875 C 7.347656 -16.207031 8.1875 -16.328125 9.0625 -16.328125 Z M 3.078125 -6.875 C 3.078125 -7.039062 3.144531 -7.179688 3.28125 -7.296875 C 3.414062 -7.421875 3.597656 -7.503906 3.828125 -7.546875 C 3.804688 -8.179688 3.785156 -8.757812 3.765625 -9.28125 C 3.753906 -9.8125 3.738281 -10.269531 3.71875 -10.65625 C 3.707031 -11.101562 3.691406 -11.503906 3.671875 -11.859375 C 3.722656 -11.898438 3.773438 -11.929688 3.828125 -11.953125 C 3.878906 -11.984375 3.941406 -12.003906 4.015625 -12.015625 C 4.085938 -12.035156 4.175781 -12.046875 4.28125 -12.046875 C 4.582031 -12.046875 4.820312 -11.992188 5 -11.890625 C 5.175781 -11.785156 5.265625 -11.609375 5.265625 -11.359375 C 5.265625 -10.585938 5.265625 -9.875 5.265625 -9.21875 C 5.265625 -8.570312 5.257812 -7.960938 5.25 -7.390625 C 5.457031 -7.335938 5.65625 -7.265625 5.84375 -7.171875 C 6.039062 -7.085938 6.222656 -6.988281 6.390625 -6.875 C 6.984375 -7.039062 7.582031 -7.273438 8.1875 -7.578125 C 8.789062 -7.878906 9.332031 -8.265625 9.8125 -8.734375 C 10.300781 -9.210938 10.695312 -9.769531 11 -10.40625 C 11.300781 -11.050781 11.453125 -11.796875 11.453125 -12.640625 C 11.453125 -13.191406 11.375 -13.660156 11.21875 -14.046875 C 11.0625 -14.441406 10.851562 -14.765625 10.59375 -15.015625 C 10.34375 -15.265625 10.039062 -15.445312 9.6875 -15.5625 C 9.332031 -15.675781 8.957031 -15.734375 8.5625 -15.734375 C 7.894531 -15.734375 7.242188 -15.640625 6.609375 -15.453125 C 5.972656 -15.265625 5.367188 -14.972656 4.796875 -14.578125 C 4.234375 -14.191406 3.710938 -13.695312 3.234375 -13.09375 C 2.753906 -12.5 2.34375 -11.796875 2 -10.984375 C 1.65625 -10.179688 1.382812 -9.265625 1.1875 -8.234375 C 0.988281 -7.203125 0.890625 -6.050781 0.890625 -4.78125 C 0.890625 -4.226562 0.914062 -3.691406 0.96875 -3.171875 C 1.03125 -2.660156 1.125 -2.207031 1.25 -1.8125 C 1.382812 -1.414062 1.554688 -1.097656 1.765625 -0.859375 C 1.984375 -0.617188 2.257812 -0.5 2.59375 -0.5 C 2.757812 -0.5 2.921875 -0.53125 3.078125 -0.59375 C 3.234375 -0.664062 3.367188 -0.8125 3.484375 -1.03125 C 3.609375 -1.257812 3.703125 -1.582031 3.765625 -2 C 3.835938 -2.425781 3.875 -2.988281 3.875 -3.6875 C 3.875 -3.9375 3.875 -4.160156 3.875 -4.359375 C 3.875 -4.554688 3.875 -4.75 3.875 -4.9375 C 3.875 -5.125 3.875 -5.3125 3.875 -5.5 C 3.875 -5.6875 3.867188 -5.894531 3.859375 -6.125 C 3.609375 -6.175781 3.414062 -6.265625 3.28125 -6.390625 C 3.144531 -6.523438 3.078125 -6.6875 3.078125 -6.875 Z M 3.578125 -6.875 C 3.578125 -6.8125 3.585938 -6.753906 3.609375 -6.703125 C 3.628906 -6.660156 3.707031 -6.625 3.84375 -6.59375 L 3.84375 -7.046875 C 3.664062 -7.015625 3.578125 -6.957031 3.578125 -6.875 Z M 5.25 -6.640625 C 5.300781 -6.640625 5.351562 -6.640625 5.40625 -6.640625 C 5.457031 -6.648438 5.503906 -6.660156 5.546875 -6.671875 C 5.503906 -6.703125 5.457031 -6.726562 5.40625 -6.75 C 5.351562 -6.78125 5.300781 -6.804688 5.25 -6.828125 Z M 5.25 -6.640625 "/></g></g></g><g fill="#c6f6d5" fill-opacity="1"><g transform="translate(75.541629, 19.266601)"><g><path d="M 8.15625 -4.078125 L 8.046875 -3.875 C 7.828125 -3.4375 7.53125 -3.085938 7.15625 -2.828125 C 6.789062 -2.566406 6.394531 -2.394531 5.96875 -2.3125 C 5.851562 -1.976562 5.703125 -1.671875 5.515625 -1.390625 C 5.335938 -1.109375 5.128906 -0.863281 4.890625 -0.65625 C 4.648438 -0.445312 4.378906 -0.285156 4.078125 -0.171875 C 3.785156 -0.0546875 3.46875 0 3.125 0 C 2.632812 0 2.1875 -0.101562 1.78125 -0.3125 C 1.382812 -0.519531 1.046875 -0.804688 0.765625 -1.171875 C 0.484375 -1.535156 0.269531 -1.957031 0.125 -2.4375 C -0.0195312 -2.914062 -0.09375 -3.429688 -0.09375 -3.984375 C -0.09375 -4.460938 -0.0390625 -4.898438 0.0625 -5.296875 C 0.175781 -5.691406 0.316406 -6.039062 0.484375 -6.34375 C 0.648438 -6.65625 0.835938 -6.925781 1.046875 -7.15625 C 1.253906 -7.382812 1.457031 -7.570312 1.65625 -7.71875 C 1.863281 -7.875 2.050781 -7.988281 2.21875 -8.0625 C 2.382812 -8.132812 2.507812 -8.171875 2.59375 -8.171875 L 2.71875 -7.828125 C 2.445312 -7.628906 2.207031 -7.359375 2 -7.015625 C 1.820312 -6.710938 1.660156 -6.316406 1.515625 -5.828125 C 1.367188 -5.335938 1.296875 -4.722656 1.296875 -3.984375 C 1.296875 -3.535156 1.335938 -3.097656 1.421875 -2.671875 C 1.503906 -2.253906 1.625 -1.882812 1.78125 -1.5625 C 1.945312 -1.238281 2.148438 -0.976562 2.390625 -0.78125 C 2.628906 -0.59375 2.894531 -0.5 3.1875 -0.5 C 3.59375 -0.5 3.929688 -0.660156 4.203125 -0.984375 C 4.472656 -1.316406 4.675781 -1.765625 4.8125 -2.328125 C 4.46875 -2.398438 4.144531 -2.535156 3.84375 -2.734375 C 3.539062 -2.929688 3.269531 -3.171875 3.03125 -3.453125 C 2.800781 -3.742188 2.613281 -4.078125 2.46875 -4.453125 C 2.332031 -4.828125 2.265625 -5.238281 2.265625 -5.6875 C 2.265625 -6.039062 2.3125 -6.351562 2.40625 -6.625 C 2.5 -6.90625 2.625 -7.140625 2.78125 -7.328125 C 2.9375 -7.515625 3.113281 -7.65625 3.3125 -7.75 C 3.519531 -7.84375 3.738281 -7.890625 3.96875 -7.890625 C 4.238281 -7.890625 4.507812 -7.8125 4.78125 -7.65625 C 5.0625 -7.507812 5.316406 -7.285156 5.546875 -6.984375 C 5.773438 -6.679688 5.957031 -6.300781 6.09375 -5.84375 C 6.238281 -5.394531 6.3125 -4.867188 6.3125 -4.265625 C 6.3125 -4.035156 6.296875 -3.8125 6.265625 -3.59375 C 6.242188 -3.375 6.207031 -3.160156 6.15625 -2.953125 C 6.46875 -3.035156 6.75 -3.175781 7 -3.375 C 7.257812 -3.582031 7.472656 -3.851562 7.640625 -4.1875 L 7.75 -4.390625 Z M 2.90625 -5.765625 C 2.90625 -5.378906 2.957031 -5.023438 3.0625 -4.703125 C 3.175781 -4.378906 3.320312 -4.09375 3.5 -3.84375 C 3.6875 -3.601562 3.898438 -3.398438 4.140625 -3.234375 C 4.378906 -3.078125 4.632812 -2.96875 4.90625 -2.90625 C 4.9375 -3.09375 4.957031 -3.285156 4.96875 -3.484375 C 4.976562 -3.679688 4.984375 -3.878906 4.984375 -4.078125 C 4.984375 -4.546875 4.945312 -4.960938 4.875 -5.328125 C 4.800781 -5.703125 4.707031 -6.019531 4.59375 -6.28125 C 4.476562 -6.550781 4.34375 -6.753906 4.1875 -6.890625 C 4.03125 -7.035156 3.867188 -7.109375 3.703125 -7.109375 C 3.484375 -7.109375 3.296875 -6.988281 3.140625 -6.75 C 2.984375 -6.519531 2.90625 -6.191406 2.90625 -5.765625 Z M 2.90625 -5.765625 "/></g></g></g><g fill="#c6f6d5" fill-opacity="1"><g transform="translate(83.292815, 19.266601)"><g><path d="M 8.15625 -4.078125 L 8.046875 -3.875 C 7.828125 -3.4375 7.53125 -3.085938 7.15625 -2.828125 C 6.789062 -2.566406 6.394531 -2.394531 5.96875 -2.3125 C 5.851562 -1.976562 5.703125 -1.671875 5.515625 -1.390625 C 5.335938 -1.109375 5.128906 -0.863281 4.890625 -0.65625 C 4.648438 -0.445312 4.378906 -0.285156 4.078125 -0.171875 C 3.785156 -0.0546875 3.46875 0 3.125 0 C 2.632812 0 2.1875 -0.101562 1.78125 -0.3125 C 1.382812 -0.519531 1.046875 -0.804688 0.765625 -1.171875 C 0.484375 -1.535156 0.269531 -1.957031 0.125 -2.4375 C -0.0195312 -2.914062 -0.09375 -3.429688 -0.09375 -3.984375 C -0.09375 -4.460938 -0.0390625 -4.898438 0.0625 -5.296875 C 0.175781 -5.691406 0.316406 -6.039062 0.484375 -6.34375 C 0.648438 -6.65625 0.835938 -6.925781 1.046875 -7.15625 C 1.253906 -7.382812 1.457031 -7.570312 1.65625 -7.71875 C 1.863281 -7.875 2.050781 -7.988281 2.21875 -8.0625 C 2.382812 -8.132812 2.507812 -8.171875 2.59375 -8.171875 L 2.71875 -7.828125 C 2.445312 -7.628906 2.207031 -7.359375 2 -7.015625 C 1.820312 -6.710938 1.660156 -6.316406 1.515625 -5.828125 C 1.367188 -5.335938 1.296875 -4.722656 1.296875 -3.984375 C 1.296875 -3.535156 1.335938 -3.097656 1.421875 -2.671875 C 1.503906 -2.253906 1.625 -1.882812 1.78125 -1.5625 C 1.945312 -1.238281 2.148438 -0.976562 2.390625 -0.78125 C 2.628906 -0.59375 2.894531 -0.5 3.1875 -0.5 C 3.59375 -0.5 3.929688 -0.660156 4.203125 -0.984375 C 4.472656 -1.316406 4.675781 -1.765625 4.8125 -2.328125 C 4.46875 -2.398438 4.144531 -2.535156 3.84375 -2.734375 C 3.539062 -2.929688 3.269531 -3.171875 3.03125 -3.453125 C 2.800781 -3.742188 2.613281 -4.078125 2.46875 -4.453125 C 2.332031 -4.828125 2.265625 -5.238281 2.265625 -5.6875 C 2.265625 -6.039062 2.3125 -6.351562 2.40625 -6.625 C 2.5 -6.90625 2.625 -7.140625 2.78125 -7.328125 C 2.9375 -7.515625 3.113281 -7.65625 3.3125 -7.75 C 3.519531 -7.84375 3.738281 -7.890625 3.96875 -7.890625 C 4.238281 -7.890625 4.507812 -7.8125 4.78125 -7.65625 C 5.0625 -7.507812 5.316406 -7.285156 5.546875 -6.984375 C 5.773438 -6.679688 5.957031 -6.300781 6.09375 -5.84375 C 6.238281 -5.394531 6.3125 -4.867188 6.3125 -4.265625 C 6.3125 -4.035156 6.296875 -3.8125 6.265625 -3.59375 C 6.242188 -3.375 6.207031 -3.160156 6.15625 -2.953125 C 6.46875 -3.035156 6.75 -3.175781 7 -3.375 C 7.257812 -3.582031 7.472656 -3.851562 7.640625 -4.1875 L 7.75 -4.390625 Z M 2.90625 -5.765625 C 2.90625 -5.378906 2.957031 -5.023438 3.0625 -4.703125 C 3.175781 -4.378906 3.320312 -4.09375 3.5 -3.84375 C 3.6875 -3.601562 3.898438 -3.398438 4.140625 -3.234375 C 4.378906 -3.078125 4.632812 -2.96875 4.90625 -2.90625 C 4.9375 -3.09375 4.957031 -3.285156 4.96875 -3.484375 C 4.976562 -3.679688 4.984375 -3.878906 4.984375 -4.078125 C 4.984375 -4.546875 4.945312 -4.960938 4.875 -5.328125 C 4.800781 -5.703125 4.707031 -6.019531 4.59375 -6.28125 C 4.476562 -6.550781 4.34375 -6.753906 4.1875 -6.890625 C 4.03125 -7.035156 3.867188 -7.109375 3.703125 -7.109375 C 3.484375 -7.109375 3.296875 -6.988281 3.140625 -6.75 C 2.984375 -6.519531 2.90625 -6.191406 2.90625 -5.765625 Z M 2.90625 -5.765625 "/></g></g></g><g fill="#c6f6d5" fill-opacity="1"><g transform="translate(91.044002, 19.266601)"><g><path d="M 3.171875 -7.28125 C 2.984375 -7.28125 2.800781 -7.210938 2.625 -7.078125 C 2.457031 -6.941406 2.296875 -6.757812 2.140625 -6.53125 C 1.984375 -6.300781 1.832031 -6.03125 1.6875 -5.71875 C 1.539062 -5.414062 1.394531 -5.085938 1.25 -4.734375 L 1.25 -4.625 C 1.226562 -4.050781 1.207031 -3.441406 1.1875 -2.796875 C 1.175781 -2.160156 1.171875 -1.460938 1.171875 -0.703125 C 1.171875 -0.566406 1.128906 -0.457031 1.046875 -0.375 C 0.960938 -0.289062 0.859375 -0.21875 0.734375 -0.15625 C 0.617188 -0.101562 0.5 -0.0625 0.375 -0.03125 C 0.25 -0.0078125 0.148438 0 0.078125 0 C -0.015625 0 -0.101562 -0.0234375 -0.1875 -0.078125 C -0.28125 -0.140625 -0.328125 -0.273438 -0.328125 -0.484375 C -0.328125 -0.578125 -0.316406 -0.695312 -0.296875 -0.84375 C -0.273438 -0.988281 -0.25 -1.144531 -0.21875 -1.3125 C -0.1875 -1.476562 -0.148438 -1.648438 -0.109375 -1.828125 C -0.078125 -2.003906 -0.046875 -2.171875 -0.015625 -2.328125 C -0.015625 -2.878906 -0.015625 -3.375 -0.015625 -3.8125 C -0.0234375 -4.257812 -0.03125 -4.65625 -0.03125 -5 C -0.03125 -5.34375 -0.03125 -5.644531 -0.03125 -5.90625 C -0.03125 -6.164062 -0.03125 -6.390625 -0.03125 -6.578125 C -0.03125 -6.890625 -0.0234375 -7.117188 -0.015625 -7.265625 C -0.015625 -7.410156 -0.00390625 -7.507812 0.015625 -7.5625 C 0.046875 -7.65625 0.101562 -7.726562 0.1875 -7.78125 C 0.28125 -7.832031 0.375 -7.875 0.46875 -7.90625 C 0.570312 -7.9375 0.671875 -7.953125 0.765625 -7.953125 C 0.867188 -7.960938 0.945312 -7.96875 1 -7.96875 C 1.113281 -7.96875 1.191406 -7.929688 1.234375 -7.859375 C 1.273438 -7.785156 1.296875 -7.675781 1.296875 -7.53125 C 1.296875 -7.1875 1.296875 -6.878906 1.296875 -6.609375 C 1.296875 -6.335938 1.289062 -6.066406 1.28125 -5.796875 C 1.394531 -6.085938 1.535156 -6.363281 1.703125 -6.625 C 1.867188 -6.882812 2.050781 -7.113281 2.25 -7.3125 C 2.457031 -7.507812 2.671875 -7.664062 2.890625 -7.78125 C 3.117188 -7.90625 3.351562 -7.96875 3.59375 -7.96875 C 3.882812 -7.96875 4.125 -7.90625 4.3125 -7.78125 C 4.5 -7.664062 4.648438 -7.5 4.765625 -7.28125 C 4.878906 -7.070312 4.960938 -6.820312 5.015625 -6.53125 C 5.078125 -6.238281 5.117188 -5.925781 5.140625 -5.59375 C 5.316406 -5.925781 5.507812 -6.234375 5.71875 -6.515625 C 5.9375 -6.804688 6.160156 -7.054688 6.390625 -7.265625 C 6.628906 -7.484375 6.878906 -7.65625 7.140625 -7.78125 C 7.398438 -7.90625 7.675781 -7.96875 7.96875 -7.96875 C 8.457031 -7.96875 8.816406 -7.8125 9.046875 -7.5 C 9.273438 -7.195312 9.390625 -6.78125 9.390625 -6.25 C 9.390625 -5.925781 9.363281 -5.554688 9.3125 -5.140625 C 9.257812 -4.734375 9.203125 -4.320312 9.140625 -3.90625 C 9.085938 -3.488281 9.035156 -3.078125 8.984375 -2.671875 C 8.929688 -2.273438 8.90625 -1.910156 8.90625 -1.578125 C 8.90625 -1.171875 9.003906 -0.96875 9.203125 -0.96875 C 9.304688 -0.96875 9.421875 -1.03125 9.546875 -1.15625 C 9.671875 -1.289062 9.8125 -1.488281 9.96875 -1.75 C 10.125 -2.007812 10.304688 -2.335938 10.515625 -2.734375 C 10.734375 -3.140625 10.976562 -3.625 11.25 -4.1875 L 11.359375 -4.390625 L 11.75 -4.078125 L 11.65625 -3.875 C 11.269531 -3.113281 10.941406 -2.484375 10.671875 -1.984375 C 10.398438 -1.484375 10.15625 -1.082031 9.9375 -0.78125 C 9.726562 -0.488281 9.53125 -0.285156 9.34375 -0.171875 C 9.15625 -0.0546875 8.941406 0 8.703125 0 C 8.566406 0 8.429688 -0.015625 8.296875 -0.046875 C 8.171875 -0.0859375 8.0625 -0.15625 7.96875 -0.25 C 7.875 -0.351562 7.796875 -0.488281 7.734375 -0.65625 C 7.671875 -0.820312 7.640625 -1.035156 7.640625 -1.296875 C 7.640625 -1.679688 7.664062 -2.117188 7.71875 -2.609375 C 7.769531 -3.097656 7.828125 -3.582031 7.890625 -4.0625 C 7.960938 -4.550781 8.023438 -5.007812 8.078125 -5.4375 C 8.128906 -5.875 8.15625 -6.226562 8.15625 -6.5 C 8.15625 -6.738281 8.101562 -6.929688 8 -7.078125 C 7.894531 -7.222656 7.738281 -7.296875 7.53125 -7.296875 C 7.320312 -7.296875 7.101562 -7.210938 6.875 -7.046875 C 6.65625 -6.890625 6.441406 -6.679688 6.234375 -6.421875 C 6.023438 -6.171875 5.828125 -5.882812 5.640625 -5.5625 C 5.453125 -5.25 5.289062 -4.9375 5.15625 -4.625 C 5.15625 -3.9375 5.144531 -3.335938 5.125 -2.828125 C 5.113281 -2.328125 5.097656 -1.898438 5.078125 -1.546875 C 5.054688 -1.191406 5.023438 -0.910156 4.984375 -0.703125 C 4.953125 -0.503906 4.910156 -0.367188 4.859375 -0.296875 C 4.828125 -0.253906 4.769531 -0.210938 4.6875 -0.171875 C 4.613281 -0.128906 4.53125 -0.09375 4.4375 -0.0625 C 4.34375 -0.0390625 4.25 -0.0234375 4.15625 -0.015625 C 4.070312 -0.00390625 4.007812 0 3.96875 0 C 3.863281 0 3.773438 -0.03125 3.703125 -0.09375 C 3.628906 -0.15625 3.59375 -0.273438 3.59375 -0.453125 C 3.59375 -0.535156 3.597656 -0.648438 3.609375 -0.796875 C 3.628906 -0.941406 3.648438 -1.097656 3.671875 -1.265625 C 3.703125 -1.441406 3.734375 -1.628906 3.765625 -1.828125 C 3.796875 -2.035156 3.828125 -2.242188 3.859375 -2.453125 C 3.867188 -2.648438 3.875 -2.867188 3.875 -3.109375 C 3.882812 -3.347656 3.890625 -3.582031 3.890625 -3.8125 C 3.898438 -4.050781 3.90625 -4.28125 3.90625 -4.5 C 3.914062 -4.71875 3.921875 -4.90625 3.921875 -5.0625 C 3.921875 -5.382812 3.910156 -5.679688 3.890625 -5.953125 C 3.867188 -6.234375 3.832031 -6.46875 3.78125 -6.65625 C 3.726562 -6.851562 3.648438 -7.003906 3.546875 -7.109375 C 3.453125 -7.222656 3.328125 -7.28125 3.171875 -7.28125 Z M 3.171875 -7.28125 "/></g></g></g><g fill="#c6f6d5" fill-opacity="1"><g transform="translate(48.747845, 29.152802)"><g><path d="M 3.84375 -3.84375 L 3.84375 -4.703125 C 3.84375 -5.078125 3.851562 -5.414062 3.875 -5.71875 C 3.894531 -6.03125 3.945312 -6.316406 4.03125 -6.578125 C 3.78125 -6.617188 3.523438 -6.664062 3.265625 -6.71875 C 3.015625 -6.769531 2.765625 -6.816406 2.515625 -6.859375 C 2.265625 -6.910156 2.023438 -6.953125 1.796875 -6.984375 C 1.578125 -7.015625 1.378906 -7.03125 1.203125 -7.03125 C 0.960938 -7.03125 0.757812 -7.007812 0.59375 -6.96875 C 0.4375 -6.9375 0.3125 -6.882812 0.21875 -6.8125 C 0.125 -6.75 0.0546875 -6.671875 0.015625 -6.578125 C -0.0234375 -6.492188 -0.046875 -6.40625 -0.046875 -6.3125 C -0.046875 -6.21875 -0.0234375 -6.128906 0.015625 -6.046875 C 0.0664062 -5.960938 0.132812 -5.890625 0.21875 -5.828125 C 0.300781 -5.773438 0.398438 -5.726562 0.515625 -5.6875 C 0.640625 -5.65625 0.769531 -5.640625 0.90625 -5.640625 C 1.070312 -5.640625 1.210938 -5.65625 1.328125 -5.6875 C 1.453125 -5.726562 1.5625 -5.769531 1.65625 -5.8125 C 1.757812 -5.863281 1.847656 -5.921875 1.921875 -5.984375 L 2.015625 -5.78125 C 1.921875 -5.707031 1.816406 -5.644531 1.703125 -5.59375 C 1.597656 -5.539062 1.476562 -5.492188 1.34375 -5.453125 C 1.21875 -5.421875 1.070312 -5.40625 0.90625 -5.40625 C 0.695312 -5.40625 0.507812 -5.429688 0.34375 -5.484375 C 0.1875 -5.535156 0.0546875 -5.609375 -0.046875 -5.703125 C -0.148438 -5.804688 -0.226562 -5.921875 -0.28125 -6.046875 C -0.34375 -6.171875 -0.375 -6.304688 -0.375 -6.453125 C -0.375 -6.609375 -0.347656 -6.753906 -0.296875 -6.890625 C -0.242188 -7.035156 -0.15625 -7.164062 -0.03125 -7.28125 C 0.0820312 -7.394531 0.234375 -7.484375 0.421875 -7.546875 C 0.617188 -7.617188 0.863281 -7.65625 1.15625 -7.65625 C 1.425781 -7.65625 1.691406 -7.632812 1.953125 -7.59375 C 2.222656 -7.550781 2.488281 -7.5 2.75 -7.4375 C 3.007812 -7.375 3.265625 -7.304688 3.515625 -7.234375 C 3.765625 -7.171875 4 -7.109375 4.21875 -7.046875 C 4.351562 -7.296875 4.519531 -7.492188 4.71875 -7.640625 C 4.925781 -7.785156 5.144531 -7.859375 5.375 -7.859375 C 5.476562 -7.859375 5.566406 -7.84375 5.640625 -7.8125 C 5.722656 -7.78125 5.789062 -7.738281 5.84375 -7.6875 C 5.894531 -7.632812 5.929688 -7.570312 5.953125 -7.5 C 5.984375 -7.425781 6 -7.351562 6 -7.28125 C 6 -7.144531 5.96875 -7.03125 5.90625 -6.9375 C 5.84375 -6.84375 5.757812 -6.765625 5.65625 -6.703125 C 5.550781 -6.640625 5.425781 -6.59375 5.28125 -6.5625 C 5.132812 -6.53125 4.976562 -6.515625 4.8125 -6.515625 C 4.78125 -6.515625 4.742188 -6.515625 4.703125 -6.515625 C 4.660156 -6.515625 4.625 -6.519531 4.59375 -6.53125 C 4.5625 -6.375 4.539062 -6.195312 4.53125 -6 C 4.519531 -5.8125 4.515625 -5.597656 4.515625 -5.359375 L 4.515625 -3.84375 L 5.140625 -3.84375 L 5.046875 -3.546875 L 4.515625 -3.546875 L 4.515625 -2.40625 C 4.515625 -2.132812 4.507812 -1.898438 4.5 -1.703125 C 4.5 -1.515625 4.484375 -1.34375 4.453125 -1.1875 C 4.421875 -1.039062 4.375 -0.90625 4.3125 -0.78125 C 4.257812 -0.664062 4.1875 -0.550781 4.09375 -0.4375 C 3.914062 -0.238281 3.671875 -0.078125 3.359375 0.046875 C 3.054688 0.171875 2.691406 0.234375 2.265625 0.234375 C 1.992188 0.234375 1.734375 0.195312 1.484375 0.125 C 1.242188 0.0507812 1.03125 -0.0507812 0.84375 -0.1875 C 0.664062 -0.320312 0.519531 -0.484375 0.40625 -0.671875 C 0.300781 -0.859375 0.25 -1.066406 0.25 -1.296875 C 0.25 -1.460938 0.273438 -1.613281 0.328125 -1.75 C 0.378906 -1.882812 0.445312 -2.003906 0.53125 -2.109375 C 0.625 -2.210938 0.722656 -2.300781 0.828125 -2.375 C 0.929688 -2.445312 1.03125 -2.507812 1.125 -2.5625 C 1.226562 -2.613281 1.320312 -2.648438 1.40625 -2.671875 C 1.488281 -2.703125 1.550781 -2.722656 1.59375 -2.734375 L 1.6875 -2.546875 C 1.613281 -2.503906 1.53125 -2.453125 1.4375 -2.390625 C 1.351562 -2.328125 1.269531 -2.242188 1.1875 -2.140625 C 1.113281 -2.046875 1.046875 -1.925781 0.984375 -1.78125 C 0.929688 -1.644531 0.90625 -1.484375 0.90625 -1.296875 C 0.90625 -1.085938 0.941406 -0.898438 1.015625 -0.734375 C 1.085938 -0.578125 1.179688 -0.441406 1.296875 -0.328125 C 1.421875 -0.222656 1.566406 -0.140625 1.734375 -0.078125 C 1.910156 -0.0234375 2.101562 0 2.3125 0 C 2.53125 0 2.734375 -0.03125 2.921875 -0.09375 C 3.117188 -0.15625 3.28125 -0.257812 3.40625 -0.40625 C 3.539062 -0.550781 3.644531 -0.742188 3.71875 -0.984375 C 3.800781 -1.234375 3.84375 -1.539062 3.84375 -1.90625 L 3.84375 -3.546875 L 2.9375 -3.546875 L 3.03125 -3.84375 Z M 5.375 -7.609375 C 5.238281 -7.609375 5.109375 -7.554688 4.984375 -7.453125 C 4.867188 -7.347656 4.769531 -7.175781 4.6875 -6.9375 C 4.789062 -6.925781 4.882812 -6.914062 4.96875 -6.90625 C 5.0625 -6.894531 5.148438 -6.890625 5.234375 -6.890625 C 5.316406 -6.890625 5.390625 -6.898438 5.453125 -6.921875 C 5.515625 -6.941406 5.5625 -6.96875 5.59375 -7 C 5.632812 -7.039062 5.660156 -7.082031 5.671875 -7.125 C 5.691406 -7.175781 5.703125 -7.226562 5.703125 -7.28125 C 5.703125 -7.375 5.671875 -7.453125 5.609375 -7.515625 C 5.546875 -7.578125 5.46875 -7.609375 5.375 -7.609375 Z M 5.375 -7.609375 "/></g></g></g><g fill="#c6f6d5" fill-opacity="1"><g transform="translate(54.317398, 29.152802)"><g><path d="M 1.921875 -1.015625 C 1.898438 -0.992188 1.875 -0.953125 1.84375 -0.890625 C 1.820312 -0.828125 1.785156 -0.757812 1.734375 -0.6875 C 1.691406 -0.613281 1.640625 -0.535156 1.578125 -0.453125 C 1.515625 -0.367188 1.441406 -0.289062 1.359375 -0.21875 C 1.285156 -0.15625 1.203125 -0.101562 1.109375 -0.0625 C 1.015625 -0.0195312 0.910156 0 0.796875 0 C 0.703125 0 0.609375 -0.015625 0.515625 -0.046875 C 0.421875 -0.0859375 0.332031 -0.15625 0.25 -0.25 C 0.164062 -0.351562 0.0976562 -0.492188 0.046875 -0.671875 C -0.00390625 -0.847656 -0.03125 -1.070312 -0.03125 -1.34375 C -0.03125 -1.601562 -0.0195312 -1.863281 0 -2.125 C 0.0078125 -2.394531 0.0234375 -2.640625 0.046875 -2.859375 C 0.078125 -3.078125 0.101562 -3.257812 0.125 -3.40625 C 0.15625 -3.550781 0.175781 -3.640625 0.1875 -3.671875 C 0.195312 -3.703125 0.222656 -3.726562 0.265625 -3.75 C 0.304688 -3.769531 0.347656 -3.785156 0.390625 -3.796875 C 0.441406 -3.804688 0.492188 -3.816406 0.546875 -3.828125 C 0.597656 -3.835938 0.640625 -3.84375 0.671875 -3.84375 C 0.722656 -3.84375 0.765625 -3.828125 0.796875 -3.796875 C 0.828125 -3.773438 0.84375 -3.734375 0.84375 -3.671875 C 0.84375 -3.640625 0.835938 -3.582031 0.828125 -3.5 C 0.816406 -3.414062 0.800781 -3.316406 0.78125 -3.203125 C 0.769531 -3.085938 0.753906 -2.957031 0.734375 -2.8125 C 0.722656 -2.664062 0.707031 -2.519531 0.6875 -2.375 C 0.675781 -2.226562 0.660156 -2.082031 0.640625 -1.9375 C 0.628906 -1.789062 0.625 -1.65625 0.625 -1.53125 C 0.625 -1.195312 0.660156 -0.945312 0.734375 -0.78125 C 0.816406 -0.613281 0.941406 -0.53125 1.109375 -0.53125 C 1.253906 -0.53125 1.398438 -0.632812 1.546875 -0.84375 C 1.691406 -1.050781 1.820312 -1.351562 1.9375 -1.75 C 1.945312 -1.925781 1.957031 -2.109375 1.96875 -2.296875 C 1.988281 -2.484375 2.003906 -2.664062 2.015625 -2.84375 C 2.023438 -3.019531 2.035156 -3.175781 2.046875 -3.3125 C 2.054688 -3.445312 2.066406 -3.546875 2.078125 -3.609375 C 2.085938 -3.648438 2.113281 -3.6875 2.15625 -3.71875 C 2.195312 -3.75 2.242188 -3.769531 2.296875 -3.78125 C 2.347656 -3.800781 2.394531 -3.816406 2.4375 -3.828125 C 2.488281 -3.835938 2.523438 -3.84375 2.546875 -3.84375 C 2.597656 -3.84375 2.632812 -3.828125 2.65625 -3.796875 C 2.675781 -3.773438 2.6875 -3.738281 2.6875 -3.6875 C 2.6875 -3.644531 2.679688 -3.5625 2.671875 -3.4375 C 2.671875 -3.3125 2.664062 -3.164062 2.65625 -3 C 2.644531 -2.84375 2.628906 -2.671875 2.609375 -2.484375 C 2.597656 -2.296875 2.585938 -2.113281 2.578125 -1.9375 C 2.566406 -1.769531 2.554688 -1.613281 2.546875 -1.46875 C 2.546875 -1.332031 2.546875 -1.226562 2.546875 -1.15625 C 2.546875 -0.9375 2.554688 -0.765625 2.578125 -0.640625 C 2.597656 -0.523438 2.648438 -0.46875 2.734375 -0.46875 C 2.796875 -0.46875 2.859375 -0.503906 2.921875 -0.578125 C 2.992188 -0.660156 3.070312 -0.769531 3.15625 -0.90625 C 3.238281 -1.039062 3.328125 -1.203125 3.421875 -1.390625 C 3.523438 -1.578125 3.632812 -1.785156 3.75 -2.015625 L 3.796875 -2.109375 L 3.984375 -1.96875 L 3.9375 -1.875 C 3.78125 -1.570312 3.644531 -1.300781 3.53125 -1.0625 C 3.425781 -0.832031 3.320312 -0.640625 3.21875 -0.484375 C 3.113281 -0.328125 3.003906 -0.207031 2.890625 -0.125 C 2.785156 -0.0390625 2.671875 0 2.546875 0 C 2.421875 0 2.316406 -0.0195312 2.234375 -0.0625 C 2.160156 -0.113281 2.097656 -0.179688 2.046875 -0.265625 C 2.003906 -0.359375 1.972656 -0.46875 1.953125 -0.59375 C 1.929688 -0.71875 1.921875 -0.859375 1.921875 -1.015625 Z M 1.921875 -1.015625 "/></g></g></g><g fill="#c6f6d5" fill-opacity="1"><g transform="translate(58.103758, 29.152802)"><g><path d="M -0.046875 -2.015625 L 0 -2.109375 C 0.0390625 -2.203125 0.0820312 -2.296875 0.125 -2.390625 C 0.164062 -2.492188 0.195312 -2.585938 0.21875 -2.671875 C 0.25 -2.765625 0.269531 -2.847656 0.28125 -2.921875 C 0.300781 -2.992188 0.316406 -3.050781 0.328125 -3.09375 C 0.242188 -3.09375 0.164062 -3.109375 0.09375 -3.140625 C 0.0195312 -3.171875 -0.0390625 -3.210938 -0.09375 -3.265625 C -0.15625 -3.328125 -0.203125 -3.390625 -0.234375 -3.453125 C -0.265625 -3.523438 -0.28125 -3.609375 -0.28125 -3.703125 C -0.28125 -3.773438 -0.265625 -3.835938 -0.234375 -3.890625 C -0.210938 -3.953125 -0.179688 -4 -0.140625 -4.03125 C -0.0976562 -4.070312 -0.0507812 -4.101562 0 -4.125 C 0.0390625 -4.144531 0.09375 -4.15625 0.15625 -4.15625 C 0.226562 -4.15625 0.289062 -4.140625 0.34375 -4.109375 C 0.40625 -4.078125 0.453125 -4.035156 0.484375 -3.984375 C 0.523438 -3.929688 0.554688 -3.867188 0.578125 -3.796875 C 0.597656 -3.734375 0.609375 -3.664062 0.609375 -3.59375 C 0.691406 -3.59375 0.785156 -3.601562 0.890625 -3.625 C 0.992188 -3.65625 1.09375 -3.6875 1.1875 -3.71875 C 1.289062 -3.75 1.394531 -3.773438 1.5 -3.796875 C 1.601562 -3.828125 1.695312 -3.84375 1.78125 -3.84375 C 1.851562 -3.84375 1.910156 -3.828125 1.953125 -3.796875 C 1.992188 -3.765625 2.015625 -3.710938 2.015625 -3.640625 C 2.015625 -3.585938 2 -3.503906 1.96875 -3.390625 C 1.9375 -3.273438 1.898438 -3.140625 1.859375 -2.984375 C 1.816406 -2.835938 1.769531 -2.671875 1.71875 -2.484375 C 1.664062 -2.304688 1.617188 -2.125 1.578125 -1.9375 C 1.535156 -1.757812 1.5 -1.582031 1.46875 -1.40625 C 1.4375 -1.238281 1.421875 -1.085938 1.421875 -0.953125 C 1.421875 -0.785156 1.4375 -0.671875 1.46875 -0.609375 C 1.507812 -0.554688 1.578125 -0.53125 1.671875 -0.53125 C 1.710938 -0.53125 1.765625 -0.546875 1.828125 -0.578125 C 1.890625 -0.617188 1.960938 -0.691406 2.046875 -0.796875 C 2.140625 -0.898438 2.242188 -1.046875 2.359375 -1.234375 C 2.484375 -1.429688 2.625 -1.691406 2.78125 -2.015625 L 2.828125 -2.109375 L 3.015625 -1.96875 L 2.96875 -1.875 C 2.78125 -1.5 2.613281 -1.1875 2.46875 -0.9375 C 2.320312 -0.695312 2.1875 -0.503906 2.0625 -0.359375 C 1.945312 -0.222656 1.832031 -0.128906 1.71875 -0.078125 C 1.613281 -0.0234375 1.503906 0 1.390625 0 C 1.203125 0 1.050781 -0.0664062 0.9375 -0.203125 C 0.820312 -0.347656 0.765625 -0.566406 0.765625 -0.859375 C 0.765625 -1.015625 0.785156 -1.175781 0.828125 -1.34375 C 0.878906 -1.519531 0.9375 -1.691406 1 -1.859375 C 1.0625 -2.035156 1.132812 -2.207031 1.21875 -2.375 C 1.300781 -2.539062 1.378906 -2.695312 1.453125 -2.84375 C 1.523438 -2.988281 1.585938 -3.125 1.640625 -3.25 C 1.703125 -3.382812 1.75 -3.5 1.78125 -3.59375 L 1.75 -3.625 C 1.695312 -3.625 1.628906 -3.597656 1.546875 -3.546875 C 1.460938 -3.492188 1.367188 -3.429688 1.265625 -3.359375 C 1.160156 -3.296875 1.046875 -3.234375 0.921875 -3.171875 C 0.804688 -3.117188 0.6875 -3.082031 0.5625 -3.0625 C 0.5625 -3.019531 0.550781 -2.957031 0.53125 -2.875 C 0.507812 -2.789062 0.476562 -2.695312 0.4375 -2.59375 C 0.40625 -2.488281 0.367188 -2.378906 0.328125 -2.265625 C 0.285156 -2.160156 0.238281 -2.0625 0.1875 -1.96875 L 0.140625 -1.875 Z M 0.1875 -3.890625 C 0.15625 -3.890625 0.128906 -3.878906 0.109375 -3.859375 C 0.0859375 -3.847656 0.078125 -3.828125 0.078125 -3.796875 C 0.078125 -3.765625 0.0859375 -3.734375 0.109375 -3.703125 C 0.128906 -3.671875 0.148438 -3.644531 0.171875 -3.625 C 0.203125 -3.613281 0.234375 -3.601562 0.265625 -3.59375 C 0.296875 -3.59375 0.320312 -3.59375 0.34375 -3.59375 C 0.34375 -3.675781 0.328125 -3.742188 0.296875 -3.796875 C 0.273438 -3.859375 0.238281 -3.890625 0.1875 -3.890625 Z M 0.1875 -3.890625 "/></g></g></g><g fill="#c6f6d5" fill-opacity="1"><g transform="translate(60.930657, 29.152802)"><g><path d="M 1.796875 -3.515625 C 1.710938 -3.515625 1.613281 -3.472656 1.5 -3.390625 C 1.394531 -3.316406 1.285156 -3.21875 1.171875 -3.09375 C 1.066406 -2.96875 0.960938 -2.828125 0.859375 -2.671875 C 0.765625 -2.523438 0.679688 -2.375 0.609375 -2.21875 C 0.597656 -1.945312 0.585938 -1.648438 0.578125 -1.328125 C 0.566406 -1.003906 0.5625 -0.65625 0.5625 -0.28125 C 0.5625 -0.238281 0.539062 -0.195312 0.5 -0.15625 C 0.457031 -0.125 0.40625 -0.09375 0.34375 -0.0625 C 0.289062 -0.0390625 0.234375 -0.0234375 0.171875 -0.015625 C 0.117188 -0.00390625 0.0703125 0 0.03125 0 C -0.0078125 0 -0.0507812 -0.0078125 -0.09375 -0.03125 C -0.132812 -0.0625 -0.15625 -0.128906 -0.15625 -0.234375 C -0.15625 -0.273438 -0.148438 -0.332031 -0.140625 -0.40625 C -0.128906 -0.476562 -0.113281 -0.550781 -0.09375 -0.625 C -0.0820312 -0.707031 -0.0664062 -0.789062 -0.046875 -0.875 C -0.0351562 -0.96875 -0.0234375 -1.050781 -0.015625 -1.125 L -0.015625 -3.421875 C -0.015625 -3.484375 -0.0078125 -3.53125 0 -3.5625 C 0 -3.59375 0.00390625 -3.617188 0.015625 -3.640625 C 0.0234375 -3.679688 0.0507812 -3.710938 0.09375 -3.734375 C 0.144531 -3.765625 0.195312 -3.785156 0.25 -3.796875 C 0.3125 -3.816406 0.363281 -3.828125 0.40625 -3.828125 C 0.457031 -3.835938 0.5 -3.84375 0.53125 -3.84375 C 0.582031 -3.84375 0.617188 -3.828125 0.640625 -3.796875 C 0.660156 -3.765625 0.671875 -3.710938 0.671875 -3.640625 C 0.671875 -3.648438 0.660156 -3.570312 0.640625 -3.40625 C 0.628906 -3.25 0.617188 -3.019531 0.609375 -2.71875 C 0.703125 -2.863281 0.800781 -3.003906 0.90625 -3.140625 C 1.019531 -3.273438 1.132812 -3.394531 1.25 -3.5 C 1.375 -3.601562 1.5 -3.6875 1.625 -3.75 C 1.75 -3.8125 1.878906 -3.84375 2.015625 -3.84375 C 2.242188 -3.84375 2.410156 -3.765625 2.515625 -3.609375 C 2.628906 -3.460938 2.6875 -3.265625 2.6875 -3.015625 C 2.6875 -2.847656 2.675781 -2.664062 2.65625 -2.46875 C 2.632812 -2.28125 2.609375 -2.082031 2.578125 -1.875 C 2.554688 -1.675781 2.535156 -1.476562 2.515625 -1.28125 C 2.492188 -1.09375 2.484375 -0.921875 2.484375 -0.765625 C 2.484375 -0.554688 2.550781 -0.453125 2.6875 -0.453125 C 2.726562 -0.453125 2.773438 -0.472656 2.828125 -0.515625 C 2.878906 -0.554688 2.945312 -0.632812 3.03125 -0.75 C 3.113281 -0.875 3.210938 -1.035156 3.328125 -1.234375 C 3.441406 -1.429688 3.582031 -1.691406 3.75 -2.015625 L 3.796875 -2.109375 L 3.984375 -1.96875 L 3.9375 -1.875 C 3.75 -1.5 3.582031 -1.1875 3.4375 -0.9375 C 3.289062 -0.695312 3.15625 -0.503906 3.03125 -0.359375 C 2.914062 -0.222656 2.804688 -0.128906 2.703125 -0.078125 C 2.597656 -0.0234375 2.5 0 2.40625 0 C 2.332031 0 2.265625 -0.0078125 2.203125 -0.03125 C 2.140625 -0.0507812 2.082031 -0.0820312 2.03125 -0.125 C 1.976562 -0.175781 1.9375 -0.238281 1.90625 -0.3125 C 1.875 -0.394531 1.859375 -0.5 1.859375 -0.625 C 1.859375 -0.8125 1.867188 -1.019531 1.890625 -1.25 C 1.921875 -1.488281 1.953125 -1.722656 1.984375 -1.953125 C 2.015625 -2.191406 2.039062 -2.414062 2.0625 -2.625 C 2.09375 -2.832031 2.109375 -3 2.109375 -3.125 C 2.109375 -3.238281 2.082031 -3.332031 2.03125 -3.40625 C 1.976562 -3.476562 1.898438 -3.515625 1.796875 -3.515625 Z M 1.796875 -3.515625 "/></g></g></g><g fill="#c6f6d5" fill-opacity="1"><g transform="translate(64.717017, 29.152802)"><g><path d="M 0.234375 -2.0625 L 0.140625 -1.875 L -0.046875 -2.015625 L 0 -2.109375 C 0.0703125 -2.273438 0.132812 -2.4375 0.1875 -2.59375 C 0.238281 -2.75 0.28125 -2.894531 0.3125 -3.03125 C 0.351562 -3.175781 0.382812 -3.300781 0.40625 -3.40625 C 0.425781 -3.519531 0.445312 -3.597656 0.46875 -3.640625 C 0.488281 -3.679688 0.515625 -3.710938 0.546875 -3.734375 C 0.585938 -3.753906 0.625 -3.769531 0.65625 -3.78125 C 0.695312 -3.800781 0.734375 -3.816406 0.765625 -3.828125 C 0.804688 -3.835938 0.835938 -3.84375 0.859375 -3.84375 C 0.921875 -3.84375 0.960938 -3.828125 0.984375 -3.796875 C 1.015625 -3.765625 1.03125 -3.710938 1.03125 -3.640625 C 1.03125 -3.609375 1.019531 -3.523438 1 -3.390625 C 0.988281 -3.253906 0.972656 -3.082031 0.953125 -2.875 C 0.941406 -2.675781 0.925781 -2.445312 0.90625 -2.1875 C 0.894531 -1.9375 0.890625 -1.675781 0.890625 -1.40625 C 0.890625 -1.207031 0.898438 -1.050781 0.921875 -0.9375 C 0.941406 -0.820312 0.960938 -0.734375 0.984375 -0.671875 C 1.015625 -0.617188 1.046875 -0.582031 1.078125 -0.5625 C 1.117188 -0.550781 1.160156 -0.546875 1.203125 -0.546875 C 1.253906 -0.546875 1.3125 -0.566406 1.375 -0.609375 C 1.4375 -0.648438 1.507812 -0.726562 1.59375 -0.84375 C 1.675781 -0.957031 1.769531 -1.109375 1.875 -1.296875 C 1.988281 -1.484375 2.117188 -1.722656 2.265625 -2.015625 L 2.3125 -2.109375 L 2.5 -1.96875 L 2.453125 -1.875 C 2.335938 -1.632812 2.21875 -1.398438 2.09375 -1.171875 C 1.976562 -0.953125 1.859375 -0.753906 1.734375 -0.578125 C 1.617188 -0.410156 1.5 -0.269531 1.375 -0.15625 C 1.257812 -0.0507812 1.140625 0 1.015625 0 C 0.890625 0 0.78125 -0.0234375 0.6875 -0.078125 C 0.59375 -0.128906 0.515625 -0.210938 0.453125 -0.328125 C 0.390625 -0.453125 0.34375 -0.609375 0.3125 -0.796875 C 0.289062 -0.992188 0.28125 -1.238281 0.28125 -1.53125 C 0.28125 -1.613281 0.28125 -1.695312 0.28125 -1.78125 C 0.28125 -1.875 0.28125 -1.96875 0.28125 -2.0625 Z M 1.203125 -4.796875 C 1.203125 -4.691406 1.164062 -4.597656 1.09375 -4.515625 C 1.019531 -4.441406 0.925781 -4.40625 0.8125 -4.40625 C 0.707031 -4.40625 0.617188 -4.441406 0.546875 -4.515625 C 0.472656 -4.597656 0.4375 -4.691406 0.4375 -4.796875 C 0.4375 -4.898438 0.472656 -4.988281 0.546875 -5.0625 C 0.617188 -5.144531 0.707031 -5.1875 0.8125 -5.1875 C 0.925781 -5.1875 1.019531 -5.144531 1.09375 -5.0625 C 1.164062 -4.988281 1.203125 -4.898438 1.203125 -4.796875 Z M 1.203125 -4.796875 "/></g></g></g><g fill="#c6f6d5" fill-opacity="1"><g transform="translate(67.029083, 29.152802)"><g><path d="M -0.015625 -1.53125 C -0.015625 -1.863281 -0.00390625 -2.195312 0.015625 -2.53125 C 0.046875 -2.863281 0.078125 -3.203125 0.109375 -3.546875 L -0.3125 -3.546875 L -0.25 -3.84375 L 0.15625 -3.84375 C 0.195312 -4.15625 0.238281 -4.472656 0.28125 -4.796875 C 0.332031 -5.117188 0.375 -5.4375 0.40625 -5.75 L 0.890625 -5.75 C 0.878906 -5.6875 0.867188 -5.585938 0.859375 -5.453125 C 0.847656 -5.328125 0.835938 -5.175781 0.828125 -5 C 0.816406 -4.832031 0.800781 -4.648438 0.78125 -4.453125 C 0.769531 -4.253906 0.757812 -4.050781 0.75 -3.84375 L 1.65625 -3.84375 L 1.609375 -3.546875 L 0.734375 -3.546875 C 0.722656 -3.367188 0.710938 -3.191406 0.703125 -3.015625 C 0.691406 -2.847656 0.679688 -2.6875 0.671875 -2.53125 C 0.660156 -2.382812 0.65625 -2.242188 0.65625 -2.109375 C 0.65625 -1.984375 0.65625 -1.875 0.65625 -1.78125 C 0.65625 -1.539062 0.660156 -1.335938 0.671875 -1.171875 C 0.679688 -1.015625 0.703125 -0.890625 0.734375 -0.796875 C 0.765625 -0.703125 0.800781 -0.632812 0.84375 -0.59375 C 0.894531 -0.550781 0.945312 -0.53125 1 -0.53125 C 1.082031 -0.53125 1.171875 -0.566406 1.265625 -0.640625 C 1.359375 -0.722656 1.457031 -0.832031 1.5625 -0.96875 C 1.664062 -1.101562 1.769531 -1.257812 1.875 -1.4375 C 1.976562 -1.613281 2.082031 -1.804688 2.1875 -2.015625 L 2.234375 -2.109375 L 2.421875 -1.96875 L 2.375 -1.875 C 2.238281 -1.582031 2.097656 -1.316406 1.953125 -1.078125 C 1.804688 -0.847656 1.664062 -0.648438 1.53125 -0.484375 C 1.394531 -0.328125 1.257812 -0.207031 1.125 -0.125 C 1 -0.0390625 0.875 0 0.75 0 C 0.625 0 0.515625 -0.0234375 0.421875 -0.078125 C 0.328125 -0.140625 0.242188 -0.226562 0.171875 -0.34375 C 0.109375 -0.46875 0.0625 -0.628906 0.03125 -0.828125 C 0 -1.023438 -0.015625 -1.257812 -0.015625 -1.53125 Z M -0.015625 -1.53125 "/></g></g></g><g fill="#c6f6d5" fill-opacity="1"><g transform="translate(69.261585, 29.152802)"><g><path d="M 1.921875 -1.015625 C 1.898438 -0.992188 1.875 -0.953125 1.84375 -0.890625 C 1.820312 -0.828125 1.785156 -0.757812 1.734375 -0.6875 C 1.691406 -0.613281 1.640625 -0.535156 1.578125 -0.453125 C 1.515625 -0.367188 1.441406 -0.289062 1.359375 -0.21875 C 1.285156 -0.15625 1.203125 -0.101562 1.109375 -0.0625 C 1.015625 -0.0195312 0.910156 0 0.796875 0 C 0.703125 0 0.609375 -0.015625 0.515625 -0.046875 C 0.421875 -0.0859375 0.332031 -0.15625 0.25 -0.25 C 0.164062 -0.351562 0.0976562 -0.492188 0.046875 -0.671875 C -0.00390625 -0.847656 -0.03125 -1.070312 -0.03125 -1.34375 C -0.03125 -1.601562 -0.0195312 -1.863281 0 -2.125 C 0.0078125 -2.394531 0.0234375 -2.640625 0.046875 -2.859375 C 0.078125 -3.078125 0.101562 -3.257812 0.125 -3.40625 C 0.15625 -3.550781 0.175781 -3.640625 0.1875 -3.671875 C 0.195312 -3.703125 0.222656 -3.726562 0.265625 -3.75 C 0.304688 -3.769531 0.347656 -3.785156 0.390625 -3.796875 C 0.441406 -3.804688 0.492188 -3.816406 0.546875 -3.828125 C 0.597656 -3.835938 0.640625 -3.84375 0.671875 -3.84375 C 0.722656 -3.84375 0.765625 -3.828125 0.796875 -3.796875 C 0.828125 -3.773438 0.84375 -3.734375 0.84375 -3.671875 C 0.84375 -3.640625 0.835938 -3.582031 0.828125 -3.5 C 0.816406 -3.414062 0.800781 -3.316406 0.78125 -3.203125 C 0.769531 -3.085938 0.753906 -2.957031 0.734375 -2.8125 C 0.722656 -2.664062 0.707031 -2.519531 0.6875 -2.375 C 0.675781 -2.226562 0.660156 -2.082031 0.640625 -1.9375 C 0.628906 -1.789062 0.625 -1.65625 0.625 -1.53125 C 0.625 -1.195312 0.660156 -0.945312 0.734375 -0.78125 C 0.816406 -0.613281 0.941406 -0.53125 1.109375 -0.53125 C 1.253906 -0.53125 1.398438 -0.632812 1.546875 -0.84375 C 1.691406 -1.050781 1.820312 -1.351562 1.9375 -1.75 C 1.945312 -1.925781 1.957031 -2.109375 1.96875 -2.296875 C 1.988281 -2.484375 2.003906 -2.664062 2.015625 -2.84375 C 2.023438 -3.019531 2.035156 -3.175781 2.046875 -3.3125 C 2.054688 -3.445312 2.066406 -3.546875 2.078125 -3.609375 C 2.085938 -3.648438 2.113281 -3.6875 2.15625 -3.71875 C 2.195312 -3.75 2.242188 -3.769531 2.296875 -3.78125 C 2.347656 -3.800781 2.394531 -3.816406 2.4375 -3.828125 C 2.488281 -3.835938 2.523438 -3.84375 2.546875 -3.84375 C 2.597656 -3.84375 2.632812 -3.828125 2.65625 -3.796875 C 2.675781 -3.773438 2.6875 -3.738281 2.6875 -3.6875 C 2.6875 -3.644531 2.679688 -3.5625 2.671875 -3.4375 C 2.671875 -3.3125 2.664062 -3.164062 2.65625 -3 C 2.644531 -2.84375 2.628906 -2.671875 2.609375 -2.484375 C 2.597656 -2.296875 2.585938 -2.113281 2.578125 -1.9375 C 2.566406 -1.769531 2.554688 -1.613281 2.546875 -1.46875 C 2.546875 -1.332031 2.546875 -1.226562 2.546875 -1.15625 C 2.546875 -0.9375 2.554688 -0.765625 2.578125 -0.640625 C 2.597656 -0.523438 2.648438 -0.46875 2.734375 -0.46875 C 2.796875 -0.46875 2.859375 -0.503906 2.921875 -0.578125 C 2.992188 -0.660156 3.070312 -0.769531 3.15625 -0.90625 C 3.238281 -1.039062 3.328125 -1.203125 3.421875 -1.390625 C 3.523438 -1.578125 3.632812 -1.785156 3.75 -2.015625 L 3.796875 -2.109375 L 3.984375 -1.96875 L 3.9375 -1.875 C 3.78125 -1.570312 3.644531 -1.300781 3.53125 -1.0625 C 3.425781 -0.832031 3.320312 -0.640625 3.21875 -0.484375 C 3.113281 -0.328125 3.003906 -0.207031 2.890625 -0.125 C 2.785156 -0.0390625 2.671875 0 2.546875 0 C 2.421875 0 2.316406 -0.0195312 2.234375 -0.0625 C 2.160156 -0.113281 2.097656 -0.179688 2.046875 -0.265625 C 2.003906 -0.359375 1.972656 -0.46875 1.953125 -0.59375 C 1.929688 -0.71875 1.921875 -0.859375 1.921875 -1.015625 Z M 1.921875 -1.015625 "/></g></g></g><g fill="#c6f6d5" fill-opacity="1"><g transform="translate(73.047945, 29.152802)"><g><path d="M -0.046875 -2.015625 L 0 -2.109375 C 0.0390625 -2.203125 0.0820312 -2.296875 0.125 -2.390625 C 0.164062 -2.492188 0.195312 -2.585938 0.21875 -2.671875 C 0.25 -2.765625 0.269531 -2.847656 0.28125 -2.921875 C 0.300781 -2.992188 0.316406 -3.050781 0.328125 -3.09375 C 0.242188 -3.09375 0.164062 -3.109375 0.09375 -3.140625 C 0.0195312 -3.171875 -0.0390625 -3.210938 -0.09375 -3.265625 C -0.15625 -3.328125 -0.203125 -3.390625 -0.234375 -3.453125 C -0.265625 -3.523438 -0.28125 -3.609375 -0.28125 -3.703125 C -0.28125 -3.773438 -0.265625 -3.835938 -0.234375 -3.890625 C -0.210938 -3.953125 -0.179688 -4 -0.140625 -4.03125 C -0.0976562 -4.070312 -0.0507812 -4.101562 0 -4.125 C 0.0390625 -4.144531 0.09375 -4.15625 0.15625 -4.15625 C 0.226562 -4.15625 0.289062 -4.140625 0.34375 -4.109375 C 0.40625 -4.078125 0.453125 -4.035156 0.484375 -3.984375 C 0.523438 -3.929688 0.554688 -3.867188 0.578125 -3.796875 C 0.597656 -3.734375 0.609375 -3.664062 0.609375 -3.59375 C 0.691406 -3.59375 0.785156 -3.601562 0.890625 -3.625 C 0.992188 -3.65625 1.09375 -3.6875 1.1875 -3.71875 C 1.289062 -3.75 1.394531 -3.773438 1.5 -3.796875 C 1.601562 -3.828125 1.695312 -3.84375 1.78125 -3.84375 C 1.851562 -3.84375 1.910156 -3.828125 1.953125 -3.796875 C 1.992188 -3.765625 2.015625 -3.710938 2.015625 -3.640625 C 2.015625 -3.585938 2 -3.503906 1.96875 -3.390625 C 1.9375 -3.273438 1.898438 -3.140625 1.859375 -2.984375 C 1.816406 -2.835938 1.769531 -2.671875 1.71875 -2.484375 C 1.664062 -2.304688 1.617188 -2.125 1.578125 -1.9375 C 1.535156 -1.757812 1.5 -1.582031 1.46875 -1.40625 C 1.4375 -1.238281 1.421875 -1.085938 1.421875 -0.953125 C 1.421875 -0.785156 1.4375 -0.671875 1.46875 -0.609375 C 1.507812 -0.554688 1.578125 -0.53125 1.671875 -0.53125 C 1.710938 -0.53125 1.765625 -0.546875 1.828125 -0.578125 C 1.890625 -0.617188 1.960938 -0.691406 2.046875 -0.796875 C 2.140625 -0.898438 2.242188 -1.046875 2.359375 -1.234375 C 2.484375 -1.429688 2.625 -1.691406 2.78125 -2.015625 L 2.828125 -2.109375 L 3.015625 -1.96875 L 2.96875 -1.875 C 2.78125 -1.5 2.613281 -1.1875 2.46875 -0.9375 C 2.320312 -0.695312 2.1875 -0.503906 2.0625 -0.359375 C 1.945312 -0.222656 1.832031 -0.128906 1.71875 -0.078125 C 1.613281 -0.0234375 1.503906 0 1.390625 0 C 1.203125 0 1.050781 -0.0664062 0.9375 -0.203125 C 0.820312 -0.347656 0.765625 -0.566406 0.765625 -0.859375 C 0.765625 -1.015625 0.785156 -1.175781 0.828125 -1.34375 C 0.878906 -1.519531 0.9375 -1.691406 1 -1.859375 C 1.0625 -2.035156 1.132812 -2.207031 1.21875 -2.375 C 1.300781 -2.539062 1.378906 -2.695312 1.453125 -2.84375 C 1.523438 -2.988281 1.585938 -3.125 1.640625 -3.25 C 1.703125 -3.382812 1.75 -3.5 1.78125 -3.59375 L 1.75 -3.625 C 1.695312 -3.625 1.628906 -3.597656 1.546875 -3.546875 C 1.460938 -3.492188 1.367188 -3.429688 1.265625 -3.359375 C 1.160156 -3.296875 1.046875 -3.234375 0.921875 -3.171875 C 0.804688 -3.117188 0.6875 -3.082031 0.5625 -3.0625 C 0.5625 -3.019531 0.550781 -2.957031 0.53125 -2.875 C 0.507812 -2.789062 0.476562 -2.695312 0.4375 -2.59375 C 0.40625 -2.488281 0.367188 -2.378906 0.328125 -2.265625 C 0.285156 -2.160156 0.238281 -2.0625 0.1875 -1.96875 L 0.140625 -1.875 Z M 0.1875 -3.890625 C 0.15625 -3.890625 0.128906 -3.878906 0.109375 -3.859375 C 0.0859375 -3.847656 0.078125 -3.828125 0.078125 -3.796875 C 0.078125 -3.765625 0.0859375 -3.734375 0.109375 -3.703125 C 0.128906 -3.671875 0.148438 -3.644531 0.171875 -3.625 C 0.203125 -3.613281 0.234375 -3.601562 0.265625 -3.59375 C 0.296875 -3.59375 0.320312 -3.59375 0.34375 -3.59375 C 0.34375 -3.675781 0.328125 -3.742188 0.296875 -3.796875 C 0.273438 -3.859375 0.238281 -3.890625 0.1875 -3.890625 Z M 0.1875 -3.890625 "/></g></g></g><g fill="#c6f6d5" fill-opacity="1"><g transform="translate(75.874844, 29.152802)"><g><path d="M 1.375 -0.53125 C 1.488281 -0.53125 1.601562 -0.554688 1.71875 -0.609375 C 1.832031 -0.671875 1.945312 -0.757812 2.0625 -0.875 C 2.175781 -0.988281 2.296875 -1.140625 2.421875 -1.328125 C 2.546875 -1.523438 2.675781 -1.753906 2.8125 -2.015625 L 2.859375 -2.109375 L 3.046875 -1.96875 L 3 -1.875 C 2.832031 -1.539062 2.664062 -1.253906 2.5 -1.015625 C 2.332031 -0.773438 2.164062 -0.578125 2 -0.421875 C 1.84375 -0.273438 1.6875 -0.164062 1.53125 -0.09375 C 1.375 -0.03125 1.222656 0 1.078125 0 C 0.878906 0 0.695312 -0.0390625 0.53125 -0.125 C 0.375 -0.207031 0.238281 -0.320312 0.125 -0.46875 C 0.0195312 -0.613281 -0.0546875 -0.78125 -0.109375 -0.96875 C -0.171875 -1.164062 -0.203125 -1.367188 -0.203125 -1.578125 C -0.203125 -1.921875 -0.15625 -2.226562 -0.0625 -2.5 C 0.03125 -2.78125 0.148438 -3.019531 0.296875 -3.21875 C 0.453125 -3.414062 0.628906 -3.566406 0.828125 -3.671875 C 1.023438 -3.785156 1.234375 -3.84375 1.453125 -3.84375 C 1.660156 -3.84375 1.820312 -3.785156 1.9375 -3.671875 C 2.050781 -3.566406 2.109375 -3.429688 2.109375 -3.265625 C 2.109375 -3.097656 2.0625 -2.945312 1.96875 -2.8125 C 1.882812 -2.675781 1.765625 -2.539062 1.609375 -2.40625 C 1.453125 -2.269531 1.269531 -2.132812 1.0625 -2 C 0.863281 -1.875 0.65625 -1.742188 0.4375 -1.609375 C 0.457031 -1.453125 0.492188 -1.304688 0.546875 -1.171875 C 0.597656 -1.035156 0.660156 -0.921875 0.734375 -0.828125 C 0.816406 -0.734375 0.910156 -0.660156 1.015625 -0.609375 C 1.128906 -0.554688 1.25 -0.53125 1.375 -0.53125 Z M 1.53125 -3.125 C 1.53125 -3.25 1.492188 -3.34375 1.421875 -3.40625 C 1.359375 -3.476562 1.28125 -3.515625 1.1875 -3.515625 C 1.101562 -3.515625 1.015625 -3.484375 0.921875 -3.421875 C 0.828125 -3.367188 0.742188 -3.28125 0.671875 -3.15625 C 0.597656 -3.03125 0.535156 -2.867188 0.484375 -2.671875 C 0.429688 -2.472656 0.40625 -2.234375 0.40625 -1.953125 L 0.40625 -1.84375 C 0.519531 -1.90625 0.640625 -1.984375 0.765625 -2.078125 C 0.890625 -2.171875 1.007812 -2.269531 1.125 -2.375 C 1.238281 -2.488281 1.332031 -2.609375 1.40625 -2.734375 C 1.488281 -2.859375 1.53125 -2.988281 1.53125 -3.125 Z M 1.53125 -3.125 "/></g></g></g></svg>